<svg width="294" height="294" viewBox="0 0 294 294" fill="none" xmlns="http://www.w3.org/2000/svg">
<g clip-path="url(#clip0_214_48)">
<path d="M-0.441002 -0.440918H294.441V294.441H-0.441002V-0.440918Z" fill="#FD6925"/>
<path d="M23.3403 67.8284V67.0117H33.4833C33.4833 71.7321 34.0387 74.0228 37.5667 74.0228C40.9681 74.0228 41.7317 71.3155 41.7317 62.6385V56.93C40.5516 58.9431 37.9137 60.1231 34.6512 60.1966C25.5576 60.3355 22.4338 52.769 22.4338 43.455C22.4583 32.0788 26.5417 24.5001 37.5667 24.5001C48.2568 24.5001 52.6995 31.7889 52.6995 42.4668V62.9447C52.6995 73.9125 49.5758 82.1731 37.4972 82.1731C27.1582 82.1976 23.3403 77.1302 23.3403 67.8284ZM41.7357 49.433V40.4782C41.7357 36.2438 41.0416 32.4953 37.5707 32.4953C34.0305 32.4953 33.4057 36.105 33.4057 42.2136C33.4057 47.9752 33.4752 52.0136 37.6402 52.0136C39.7921 52.0014 41.0416 50.6335 41.7357 49.433ZM65.415 24.7778H69.2901V46.2766H65.415V24.7778ZM71.2297 24.7778H73.9614L79.1922 37.0278V24.7778H82.4302V46.2766H79.8292L74.5739 33.4304V46.2766H71.2297V24.7778ZM84.3127 24.7778H89.3842C94.6108 24.7778 96.2033 26.8766 96.2033 31.4663V39.2981C96.2033 44.0225 94.57 46.2766 89.5434 46.2766H84.3127V24.7778ZM89.4372 43.5611C92.1159 43.5611 92.2221 42.1279 92.2221 39.4451V31.2009C92.2221 28.6284 91.9567 27.5667 89.3842 27.5667H88.2V43.5448L89.4372 43.5611ZM97.559 39.3226V24.7778H101.381V39.7759C101.381 41.8176 101.618 43.651 103.611 43.651C105.603 43.651 105.865 41.8176 105.865 39.7759V24.7778H109.662V39.3226C109.662 43.8143 108.413 46.5706 103.611 46.5706C98.8085 46.5706 97.559 43.8347 97.559 39.3226ZM104.125 17.9668H107.8L104.64 23.2751H102.545L104.125 17.9668ZM110.83 40.0168L114.199 39.3553C114.305 41.9033 114.917 43.5489 116.649 43.5489C117.898 43.5489 118.429 42.6995 118.429 41.5317C118.429 39.6738 117.473 38.6366 116.065 37.4157L113.357 35.0555C111.818 33.7285 110.863 32.2421 110.863 29.8534C110.863 26.456 112.986 24.545 116.412 24.545C120.446 24.545 121.585 27.2523 121.798 30.3842L118.417 30.964C118.335 28.9469 118.045 27.432 116.318 27.432C115.15 27.432 114.513 28.3099 114.513 29.4491C114.513 30.911 115.126 31.7072 116.265 32.6872L118.947 35.0515C120.699 36.5623 122.157 38.4488 122.157 41.2867C122.157 44.3941 119.981 46.5706 116.771 46.5706C112.847 46.5706 110.989 44.288 110.83 40.0168ZM125.24 27.6729H121.814V24.7778H132.512V27.6729H129.168V46.2766H125.24V27.6729ZM133.117 24.7778H138.29C142.59 24.7778 145.032 26.158 145.032 30.4945C145.032 33.067 144.395 34.8718 142.378 35.6966L145.367 46.2766H141.439L138.862 36.4316H136.996V46.2766H133.117V24.7778ZM138.266 33.9898C140.52 33.9898 141.345 33.0057 141.345 30.6986C141.345 28.5222 140.732 27.4605 138.486 27.4605H136.996V33.9939L138.266 33.9898ZM146.71 24.7778H150.585V46.2766H146.71V24.7778ZM155.734 24.7778H159.928L164.228 46.2766H160.593L159.744 41.3153H155.983L155.11 46.2766H151.435L155.734 24.7778ZM159.319 38.8204L157.858 29.8085L156.392 38.8204H159.319ZM164.681 48.5591C165.193 48.4463 165.648 48.1543 165.964 47.7359C166.28 47.3174 166.436 46.7999 166.404 46.2766H164.493V42.6955H168.025V45.9621C168.025 48.2447 167.041 49.4942 165.052 49.8658L164.681 48.5591ZM174.448 24.7778H178.323V46.2766H174.448V24.7778ZM180.259 24.7778H182.995L188.221 37.0278V24.7778H191.459V46.2766H188.858L183.603 33.4304V46.2766H180.259V24.7778ZM192.999 39.535V31.4663C192.999 27.1135 194.591 24.5246 199.209 24.5246C203.828 24.5246 205.392 27.1135 205.392 31.4663V39.535C205.392 43.8633 203.799 46.5706 199.205 46.5706C194.612 46.5706 192.999 43.8878 192.999 39.535ZM201.415 40.466V30.5639C201.415 28.759 201.121 27.4075 199.209 27.4075C197.299 27.4075 196.98 28.759 196.98 30.5639V40.466C196.98 42.2422 197.274 43.6755 199.209 43.6755C201.145 43.6755 201.415 42.2422 201.415 40.466ZM205.8 24.7778H209.25L212.109 39.9882L214.783 24.7778H218.315L213.967 46.2766H210.12L205.8 24.7778ZM221.529 24.7778H225.727L230.026 46.2766H226.388L225.539 41.3153H221.794L220.908 46.2766H217.233L221.529 24.7778ZM225.114 38.8204L223.656 29.8085L222.195 38.8326L225.114 38.8204ZM238.491 32.528V30.67C238.491 28.8652 238.467 27.4034 236.474 27.4034C234.481 27.4034 234.273 28.9428 234.273 30.9069V40.225C234.273 42.5607 234.751 43.6755 236.474 43.6755C238.414 43.6755 238.491 42.1646 238.491 40.2536V38.314H242.26V40.0413C242.26 43.6755 241.092 46.3582 236.98 46.5746V47.9017C238.944 47.9017 240.272 48.7756 240.272 50.4211C240.272 52.3076 238.597 53.1039 236.662 53.1039C236.014 53.0982 235.37 52.9991 234.751 52.8099V51.1398C235.215 51.2822 235.698 51.3538 236.184 51.3521C237.111 51.3521 237.817 51.0867 237.817 50.368C237.817 49.4125 236.731 49.0695 235.482 48.9348V46.5215C231.525 46.1173 230.3 43.2835 230.3 39.4043V31.7317C230.3 27.3258 231.705 24.541 236.425 24.541C240.831 24.541 242.236 26.991 242.236 30.7231V32.528H238.491ZM246.825 24.7778H251.019L255.319 46.2766H251.684L250.835 41.3153H247.091L246.225 46.2766H242.55L246.825 24.7778ZM247.642 20.719C246.952 20.719 246.715 21.1273 246.715 21.8051H244.857C244.857 19.8941 245.388 18.4609 247.111 18.4609C248.414 18.4609 249.288 19.6859 250.431 19.6859C251.043 19.6859 251.28 19.3143 251.28 18.6242H253.032C253.032 20.2984 252.742 21.9685 251.015 21.9685C249.639 21.9644 248.736 20.719 247.646 20.719H247.642ZM250.406 38.8204L248.949 29.8085L247.487 38.8326L250.406 38.8204ZM255.531 39.535V31.4663C255.531 27.1135 257.123 24.5246 261.742 24.5246C266.36 24.5246 267.924 27.0971 267.924 31.4663V39.535C267.924 43.8633 266.331 46.5706 261.742 46.5706C257.152 46.5706 255.531 43.8878 255.531 39.535ZM263.943 40.466V30.5639C263.943 28.759 263.653 27.4075 261.742 27.4075C259.831 27.4075 259.512 28.759 259.512 30.5639V40.466C259.512 42.2422 259.802 43.6755 261.742 43.6755C263.681 43.6755 263.943 42.2422 263.943 40.466ZM65.3088 59.8945H74.3167V62.6548H69.2125V68.841H73.2468V71.5728H69.2125V78.7146H74.3861V81.3932H65.3088V59.8945ZM80.4662 59.8945H84.3413V81.3932H80.4662V59.8945ZM86.2767 59.8945H89.0167L94.2433 72.1445V59.8945H97.4814V81.3932H94.8803L89.6251 68.547V81.3932H86.2808L86.2767 59.8945ZM99.3638 59.8945H108.208V62.6017H103.263V68.8655H107.298V71.6014H103.263V81.4014H99.3638V59.8945ZM108.943 59.8945H114.121C118.421 59.8945 120.863 61.2746 120.863 65.6111C120.863 68.1836 120.226 69.9885 118.208 70.8133L121.206 81.4014H117.277L114.705 71.5565H112.847V81.4014H108.943V59.8945ZM114.092 69.1065C116.351 69.1065 117.171 68.1224 117.171 65.8153C117.171 63.6389 116.563 62.5772 114.313 62.5772H112.855V69.1105L114.092 69.1065ZM125.665 59.8945H129.85L134.15 81.3932H130.516L129.666 76.432H125.93L125.052 81.3932H121.377L125.665 59.8945ZM129.25 73.9371L127.808 64.9251L126.351 73.9493L129.25 73.9371ZM134.926 59.8945H143.95V62.6548H138.833V68.841H142.868V71.5728H138.833V78.7146H144.007V81.3932H134.926V59.8945ZM144.374 75.1335L147.747 74.472C147.853 77.02 148.462 78.6656 150.197 78.6656C151.443 78.6656 151.974 77.8162 151.974 76.6484C151.974 74.7905 151.018 73.7533 149.613 72.5324L146.906 70.1722C145.367 68.8451 144.411 67.3588 144.411 64.9701C144.411 61.5727 146.535 59.6617 149.956 59.6617C153.991 59.6617 155.134 62.369 155.346 65.5009L151.974 66.0848C151.896 64.0676 151.602 62.5527 149.879 62.5527C148.711 62.5527 148.074 63.4306 148.074 64.5699C148.074 66.0317 148.682 66.828 149.826 67.808L152.504 70.1722C154.256 71.6831 155.718 73.5695 155.718 76.4075C155.718 79.5149 153.541 81.6913 150.328 81.6913C146.392 81.6872 144.55 79.4046 144.374 75.1335ZM158.789 62.7896H155.363V59.8945H166.061V62.7896H162.717V81.3932H158.789V62.7896ZM166.645 59.8945H171.819C176.118 59.8945 178.56 61.2746 178.56 65.6111C178.56 68.1836 177.923 69.9885 175.906 70.8133L178.907 81.4014H174.979L172.402 71.5565H170.545V81.4014H166.645V59.8945ZM171.794 69.1065C174.048 69.1065 174.873 68.1224 174.873 65.8153C174.873 63.6389 174.26 62.5772 172.015 62.5772H170.553V69.1105L171.794 69.1065ZM179.916 74.4393V59.8945H183.75V74.8926C183.75 76.9342 183.987 78.7676 185.979 78.7676C187.972 78.7676 188.234 76.9342 188.234 74.8926V59.8945H192.031V74.4393C192.031 78.931 190.782 81.6872 185.979 81.6872C181.177 81.6872 179.916 78.9514 179.916 74.4393ZM195.865 62.7896H192.443V59.8945H203.138V62.7896H199.793V81.3932H195.865V62.7896ZM203.562 74.4393V59.8945H207.384V74.8926C207.384 76.9342 207.625 78.7676 209.614 78.7676C211.602 78.7676 211.872 76.9342 211.872 74.8926V59.8945H215.665V74.4393C215.665 78.931 214.44 81.6872 209.614 81.6872C204.787 81.6872 203.562 78.9514 203.562 74.4393ZM217.364 59.8945H222.542C226.841 59.8945 229.283 61.2746 229.283 65.6111C229.283 68.1836 228.646 69.9885 226.629 70.8133L229.626 81.4014H225.698L223.126 71.5565H221.268V81.4014H217.364V59.8945ZM222.513 69.1065C224.771 69.1065 225.592 68.1224 225.592 65.8153C225.592 63.6389 224.983 62.5772 222.734 62.5772H221.276V69.1105L222.513 69.1065ZM234.085 59.8945H238.279L242.579 81.3932H238.944L238.095 76.432H234.351L233.473 81.3932H229.798L234.085 59.8945ZM237.65 73.9371L236.209 64.9251L234.747 73.9493L237.65 73.9371ZM222.672 193.591L187.458 173.268V132.61C187.458 132.188 187.348 131.774 187.137 131.408C186.926 131.043 186.623 130.739 186.257 130.528L149.858 109.507C149.493 109.296 149.079 109.185 148.658 109.185C148.236 109.185 147.822 109.296 147.457 109.507L111.046 130.528C110.68 130.738 110.376 131.042 110.166 131.408C109.955 131.773 109.844 132.188 109.846 132.61V173.268L74.627 193.591C74.2613 193.801 73.9576 194.103 73.7468 194.468C73.5359 194.833 73.4254 195.248 73.4265 195.669V237.728C73.4251 238.15 73.5354 238.565 73.7463 238.931C73.9571 239.296 74.261 239.6 74.627 239.81L111.038 260.827C111.403 261.038 111.817 261.149 112.239 261.149C112.66 261.149 113.074 261.038 113.439 260.827L148.633 240.508L183.84 260.831C184.205 261.042 184.619 261.153 185.04 261.154C185.462 261.155 185.876 261.043 186.241 260.831L222.656 239.814C223.022 239.604 223.326 239.3 223.537 238.935C223.748 238.569 223.858 238.154 223.856 237.732V195.673C223.86 195.253 223.752 194.839 223.544 194.473C223.336 194.107 223.036 193.803 222.672 193.591ZM146.249 233.567L117.041 216.707L146.249 199.843V233.567ZM180.251 174.665L151.051 191.508V157.792L180.251 174.665ZM146.249 191.508L117.045 174.652L146.249 157.788V191.508ZM153.456 195.669L185.057 177.425L216.666 195.665L185.057 213.918L153.456 195.669ZM182.656 170.487L153.456 153.627L182.656 136.792V170.487ZM143.844 153.627L114.64 170.492V136.792L143.844 153.627ZM109.842 254.58L78.2326 236.335V199.834L109.842 218.083V254.58ZM114.644 254.58V220.859L143.848 237.72L114.644 254.58ZM219.071 236.335L187.458 254.58V218.083L219.071 199.834V236.335Z" fill="white"/>
</g>
<defs>
<clipPath id="clip0_214_48">
<rect width="294" height="294" fill="white"/>
</clipPath>
</defs>
</svg>
