<svg width="294" height="294" viewBox="0 0 294 294" fill="none" xmlns="http://www.w3.org/2000/svg">
<g clip-path="url(#clip0_214_44)">
<path d="M-0.44101 294.041L-0.44101 -0.440857H294.041V294.041H-0.44101Z" fill="#3F7E44"/>
<path d="M20.874 36.313C19.1917 37.2154 14.4183 38.5343 12.7523 39.3673V31.3844C14.9736 30.482 21.1517 27.497 23.2342 25.2063H31.6336V81.4338H20.874V36.313ZM32.6054 65.3985V63.4549H43.2833V65.3332C43.3528 70.8171 44.3246 73.3855 47.8648 73.3855C51.4745 73.3855 52.2381 70.6089 52.2381 65.2638C52.2381 59.641 50.9192 56.4479 45.9906 56.309C45.3686 56.2367 44.7419 56.2135 44.1163 56.2396V48.3915H45.7823C50.7803 48.3915 52.2381 45.823 52.2381 40.0615C52.2381 35.5698 51.1968 32.981 47.6566 32.981C44.1163 32.981 43.365 36.0353 43.2833 40.4249V42.9239H32.6054V39.8532C32.6054 29.996 38.1588 24.4427 47.6688 24.4427C57.2483 24.4427 62.8017 29.7184 62.8017 39.5061C62.8017 46.1007 59.7473 50.6822 55.7212 51.7929C59.8045 53.32 62.8017 57.0685 62.8017 65.0515C62.8017 75.2598 58.7183 82.4056 47.7383 82.4056C36.4928 82.4056 32.6054 75.6028 32.6054 65.3985ZM97.8367 25.1655H102.03L106.33 46.6642H102.692L101.842 41.6989H98.1021L97.2242 46.6642H93.5492L97.8367 25.1655ZM101.418 39.1999L99.96 30.1757L98.4982 39.1999H101.418ZM115.379 32.9156V31.0577C115.379 29.2529 115.354 27.791 113.362 27.791C111.369 27.791 111.161 29.3305 111.161 31.2945V40.6127C111.161 42.9484 111.638 44.0631 113.362 44.0631C115.301 44.0631 115.379 42.5482 115.379 40.6372V38.7017H119.148V40.4249C119.148 44.0631 117.98 46.7418 113.868 46.9582V48.2853C115.832 48.2853 117.159 49.1632 117.159 50.8088C117.159 52.6912 115.485 53.4875 113.549 53.4875C112.902 53.4811 112.259 53.3835 111.638 53.1975V51.5234C112.102 51.6678 112.586 51.7394 113.072 51.7357C113.999 51.7357 114.705 51.4703 114.705 50.7557C114.705 49.8002 113.619 49.4531 112.369 49.3225V46.9051C108.441 46.4968 107.22 43.667 107.22 39.792V32.1194C107.22 27.7135 108.629 24.9245 113.345 24.9245C117.751 24.9245 119.156 27.3745 119.156 31.1108V32.9156H115.379ZM124.297 25.1655H128.49L132.79 46.6642H129.156L128.306 41.6989H124.562L123.688 46.6642H120.013L124.297 25.1655ZM125.113 21.0821C124.423 21.0821 124.182 21.4905 124.182 22.1724H122.324C122.324 20.2614 122.855 18.8281 124.582 18.8281C125.881 18.8281 126.759 20.0531 127.898 20.0531C128.511 20.0531 128.747 19.6815 128.747 18.9915H130.499C130.499 20.6615 130.209 22.3357 128.482 22.3357C127.11 22.352 126.208 21.1025 125.121 21.1025L125.113 21.0821ZM127.882 39.1999L126.42 30.1757L124.95 39.1999H127.882ZM133.586 39.9226V31.8499C133.586 27.497 135.179 24.9082 139.797 24.9082C144.415 24.9082 145.983 27.4848 145.983 31.8499V39.9226C145.983 44.2469 144.391 46.9541 139.797 46.9541C135.203 46.9541 133.586 44.2755 133.586 39.9226ZM142.002 40.8332V30.9515C142.002 29.1467 141.708 27.791 139.797 27.791C137.886 27.791 137.567 29.1467 137.567 30.9515V40.8332C137.567 42.6135 137.861 44.0468 139.797 44.0468C141.732 44.0468 142.002 42.6299 142.002 40.8332ZM153.386 39.7879V32.1194C153.386 27.7135 154.791 24.9245 159.511 24.9245C163.921 24.9245 165.326 27.3745 165.326 31.1108V32.9156H161.557V31.0577C161.557 29.2529 161.528 27.791 159.54 27.791C157.551 27.791 157.335 29.3305 157.335 31.2945V40.6127C157.335 42.9484 157.813 44.0631 159.54 44.0631C161.475 44.0631 161.557 42.5482 161.557 40.6372V38.7017H165.326V40.4249C165.326 44.2224 164.052 46.9582 159.511 46.9582C154.791 46.9582 153.386 43.9815 153.386 39.7879ZM166.923 39.9226V31.8499C166.923 27.497 168.515 24.9082 173.133 24.9082C177.752 24.9082 179.315 27.4848 179.315 31.8499V39.9226C179.315 44.2469 177.723 46.9541 173.133 46.9541C168.544 46.9541 166.923 44.2755 166.923 39.9226ZM175.334 40.8495V30.9515C175.334 29.1467 175.044 27.791 173.133 27.791C171.222 27.791 170.904 29.1467 170.904 30.9515V40.8332C170.904 42.6135 171.194 44.0468 173.133 44.0468C175.073 44.0468 175.334 42.6299 175.334 40.8332V40.8495ZM181.414 25.1655H184.158L189.389 37.4155V25.1655H192.627V46.6642H190.026L184.759 33.818V46.6642H181.414V25.1655ZM197.225 28.0565H193.799V25.1655H204.497V28.0565H201.153V46.6642H197.225V28.0565ZM205.673 25.1655H210.847C215.147 25.1655 217.589 26.5456 217.589 30.8821C217.589 33.4587 216.952 35.2635 214.934 36.0843L217.936 46.6765H214.007L211.431 36.8275H209.573V46.6765H205.673V25.1655ZM210.822 34.3734C213.076 34.3734 213.901 33.3934 213.901 31.0822C213.901 28.9058 213.289 27.8441 211.043 27.8441H209.581V34.3775L210.822 34.3734ZM222.979 25.1655H227.172L231.472 46.6642H227.85L227.001 41.6989H223.26L222.382 46.6642H218.707L222.979 25.1655ZM226.56 39.1999L225.102 30.1757L223.64 39.1999H226.56ZM241.688 25.1655H245.882L250.182 46.6642H246.548L245.698 41.6989H241.954L241.08 46.6642H237.405L241.688 25.1655ZM245.274 39.1999L243.812 30.1757L242.354 39.1999H245.274ZM94.9416 60.2821H99.0249L102.075 75.17L105.236 60.2821H109.188L109.597 81.7809H106.677L106.359 66.8359L103.304 81.7809H100.944L97.8367 66.7828L97.5468 81.7809H94.57L94.9416 60.2821ZM111.798 74.827V60.2821H115.62V75.2761C115.62 77.3178 115.856 79.1512 117.849 79.1512C119.842 79.1512 120.103 77.3219 120.103 75.2761V60.2821H123.901V74.827C123.901 79.339 122.651 82.0708 117.849 82.0708C113.047 82.0708 111.798 79.339 111.798 74.827ZM126.175 60.2821H131.242C136.473 60.2821 138.066 62.3769 138.066 66.9706V74.7984C138.066 79.5228 136.432 81.7809 131.402 81.7809H126.175V60.2821ZM131.296 79.0655C133.978 79.0655 134.084 77.6322 134.084 74.9535V66.7052C134.084 64.1286 133.819 63.067 131.226 63.067H130.058V79.045L131.296 79.0655ZM143.223 60.2821H147.408L151.708 81.7809H148.07L147.22 76.8155H143.488L142.61 81.7809H138.935L143.223 60.2821ZM146.804 74.3165L145.367 65.2965L143.884 74.3165H146.804ZM153.068 60.2821H155.804L161.03 72.5321V60.2821H164.268V81.7809H161.667L156.412 68.9347V81.7809H153.068V60.2821ZM174.567 68.0323V66.1744C174.567 64.3695 174.542 62.9077 172.549 62.9077C170.557 62.9077 170.348 64.4471 170.348 66.4112V75.7294C170.348 78.065 170.826 79.1798 172.549 79.1798C174.489 79.1798 174.567 77.6649 174.567 75.7539V73.8184H178.335V75.5415C178.335 79.1798 177.168 81.8585 173.056 82.0749V83.402C175.02 83.402 176.347 84.2799 176.347 85.9255C176.347 87.8079 174.673 88.6041 172.737 88.6041C172.09 88.5978 171.446 88.5002 170.826 88.3142V86.64C171.29 86.7845 171.774 86.8561 172.259 86.8524C173.186 86.8524 173.893 86.587 173.893 85.8724C173.893 84.9169 172.807 84.5698 171.557 84.4391V82.0218C167.629 81.6135 166.408 78.7837 166.408 74.9086V67.236C166.408 62.8301 167.817 60.0412 172.533 60.0412C176.939 60.0412 178.344 62.4912 178.344 66.2275V68.0323H174.567ZM183.485 60.2821H187.678L191.978 81.7809H188.344L187.494 76.8155H183.75L182.872 81.7809H179.197L183.485 60.2821ZM187.066 74.3165L185.608 65.2924L184.158 74.3165H187.066ZM198.638 74.6922V67.4729C198.638 62.8546 200.047 60.0412 204.763 60.0412C209.169 60.0412 210.708 62.3238 210.708 66.305V67.4198H206.964V66.1948C206.964 64.1245 206.751 62.9036 204.816 62.9036C202.746 62.9036 202.586 64.5778 202.586 66.5419V75.5252C202.586 77.7547 202.995 79.1635 204.922 79.1635C206.849 79.1635 207.282 77.6771 207.282 75.3415V73.3243H204.983V70.8539H210.822V81.7645H208.274L208.009 79.6657C207.425 81.0459 206.376 82.0545 204.371 82.0545C200.124 82.0749 198.638 79.2165 198.638 74.6922ZM213.023 60.2821H216.927V79.0981H222.154V81.7809H213.023V60.2821ZM222.791 75.0393V66.9665C222.791 62.6137 224.383 60.0249 229.001 60.0249C233.62 60.0249 235.2 62.6178 235.2 66.9665V75.0352C235.2 79.3595 233.607 82.0667 229.014 82.0667C224.42 82.0667 222.791 79.3921 222.791 75.0393ZM231.206 75.9499V66.0682C231.206 64.2634 230.913 62.9077 229.001 62.9077C227.09 62.9077 226.772 64.2634 226.772 66.0682V75.9499C226.772 77.7302 227.066 79.1635 229.001 79.1635C230.937 79.1635 231.206 77.7465 231.206 75.9499ZM237.282 60.2821H242.591C246.36 60.2821 248.883 61.5561 248.883 65.8028C248.883 68.4284 247.793 69.8861 245.776 70.2087C248.299 70.6865 249.492 72.4913 249.492 75.517C249.492 79.629 247.475 81.7809 243.493 81.7809H237.282V60.2821ZM242.55 69.0654C244.886 69.0654 245.498 68.0323 245.498 65.8559C245.498 63.5733 244.383 62.9975 241.995 62.9975H241.178V69.049L242.55 69.0654ZM242.709 79.0205C245.098 79.0205 245.764 77.9058 245.764 75.4885C245.764 72.9405 244.914 71.7726 242.579 71.7726H241.198V79.0205H242.709ZM254.457 60.2821H258.651L262.967 81.7809H259.328L258.475 76.8155H254.735L253.857 81.7809H250.182L254.457 60.2821ZM258.038 74.3165L256.58 65.2924L255.119 74.3165H258.038ZM264.302 60.2821H268.206V79.0981H273.432V81.7809H264.302V60.2821ZM94.6231 95.3988H99.6946C104.921 95.3988 106.514 97.4935 106.514 102.087V109.915C106.514 114.639 104.88 116.898 99.8538 116.898H94.6231V95.3988ZM99.7477 114.162C102.426 114.162 102.533 112.728 102.533 110.05V101.822C102.533 99.2453 102.267 98.1836 99.6946 98.1836H98.5267V114.162H99.7477ZM108.266 110.156V102.083C108.266 97.7304 109.858 95.1415 114.476 95.1415C119.095 95.1415 120.662 97.7181 120.662 102.083V110.152C120.662 114.476 119.07 117.183 114.476 117.183C109.883 117.183 108.266 114.509 108.266 110.156ZM116.681 111.067V101.185C116.681 99.38 116.387 98.0244 114.476 98.0244C112.565 98.0244 112.247 99.38 112.247 101.185V111.067C112.247 112.847 112.541 114.28 114.476 114.28C116.412 114.28 116.681 112.863 116.681 111.067ZM128.066 110.021V102.353C128.066 97.9468 129.474 95.1579 134.191 95.1579C138.596 95.1579 140.001 97.6079 140.001 101.344V103.149H136.232V101.291C136.232 99.4862 136.208 98.0244 134.215 98.0244C132.222 98.0244 132.014 99.5638 132.014 101.528V110.846C132.014 113.182 132.492 114.296 134.215 114.296C136.155 114.296 136.232 112.782 136.232 110.871V108.935H140.001V110.658C140.001 114.456 138.727 117.192 134.191 117.192C129.474 117.192 128.066 114.215 128.066 110.021ZM141.945 95.3988H145.848V114.215H151.083V116.898H141.945V95.3988ZM152.431 95.3988H156.306V116.898H152.431V95.3988ZM159.144 95.3988H163.207L166.257 110.287L169.417 95.3988H173.37L173.778 116.898H170.859L170.54 101.953L167.486 116.898H165.126L162.018 101.899L161.729 116.898H158.78L159.144 95.3988ZM179.369 95.3988H183.562L187.862 116.898H184.228L183.378 111.932H179.634L178.76 116.898H175.085L179.369 95.3988ZM182.954 109.433L181.492 100.409L180.034 109.433H182.954ZM257.895 190.614C250.104 179.667 214.861 135.901 149.238 135.812C83.6144 135.722 48.2487 179.381 40.425 190.32C40.0902 190.785 39.8043 191.194 39.5675 191.545C39.8043 191.9 40.0861 192.304 40.4209 192.77C48.2201 203.721 83.4552 247.487 149.091 247.568C214.726 247.65 250.072 203.991 257.891 193.06C258.234 192.586 258.516 192.186 258.74 191.835C258.516 191.492 258.234 191.088 257.895 190.61M112.59 163.399C113.182 162.533 115.15 160.058 115.391 159.724C115.897 159.074 116.902 158.944 117.604 158.817C118.306 158.69 119.237 159.078 119.34 159.601C119.442 160.124 119.07 162.157 118.723 162.508C117.759 163.505 115.252 164.909 113.872 164.689C112.806 164.521 112.386 163.693 112.59 163.378M110.25 168.058C110.352 167.935 110.446 167.833 110.487 167.784C111.303 166.845 112.957 166.645 114.092 166.469C115.228 166.294 116.747 166.849 116.93 167.608C117.114 168.368 114.072 169.736 113.517 170.25C111.936 171.704 109.458 174.664 108.012 174.979C107.617 175.079 107.199 175.036 106.832 174.856C107.779 172.499 108.923 170.224 110.25 168.058ZM134.75 218.479C133.856 221.974 132.819 223.232 131.932 224.33C131.046 225.428 127.772 226.862 125.693 226.707C123.615 226.551 123.333 220.99 123.337 218.132C123.337 217.143 121.941 220.067 121.218 214.126C120.76 210.32 118.31 214.534 118.143 211.982C117.976 209.43 116.755 209.94 115.473 208.368C114.19 206.796 112.614 208.519 110.822 209.316C109.029 210.112 109.776 210.541 107.257 209.724C107.192 209.724 107.159 209.687 107.098 209.663C104.726 204.029 103.512 197.976 103.529 191.863C103.529 190.32 103.615 188.805 103.762 187.302C103.843 187.158 103.938 187.022 104.043 186.894C106.469 184.036 106.416 183.366 106.416 183.366L109.09 182.443C111.635 182.853 114.139 183.482 116.575 184.322C119.225 185.322 123.398 187.588 125.824 186.588C127.58 185.865 128.956 184.91 128.792 183.448C128.596 181.614 127.159 181.177 125.403 182.411C124.758 182.864 123.39 179.646 122.312 179.805C121.234 179.965 123.639 183.591 122.72 183.742C121.802 183.893 119.968 179.965 119.654 179.328C119.339 178.691 117.927 177.114 116.649 178.315C113.95 180.875 109.572 180.712 108.69 181.369C106.011 183.37 105.309 180.708 105.37 179.087C105.477 178.715 105.587 178.339 105.705 177.976C106.583 177.012 109.719 176.698 110.797 177.417C111.977 178.209 112.839 177.217 113.288 176.739C113.737 176.261 113.594 175.514 113.288 174.881C112.982 174.248 113.88 173.778 114.493 173.619C115.105 173.46 117.151 172.031 117.963 171.557C118.776 171.083 123.01 170.577 124.905 171.528C125.655 171.927 126.519 172.053 127.351 171.886C128.183 171.72 128.932 171.27 129.47 170.614C130.403 169.505 131.526 168.57 132.786 167.853C133.451 167.547 131.153 165.403 129.27 167.735C127.388 170.067 126.412 170.267 125.526 170.267C124.64 170.267 119.364 168.94 118.715 167.27C118.065 165.599 120.348 164.358 122.32 163.419C124.293 162.48 129.597 162.512 130.961 162.194C133.729 161.59 137.273 160.201 139.058 161.418C140.842 162.635 131.602 164.705 134.632 166.347C135.71 166.939 140.593 163.546 142.263 162.672C146.2 160.65 138.458 159.969 139.466 155.848C140.61 151.189 129.972 152.99 124.668 153.366C130.813 149.447 137.806 147.055 145.064 146.389C152.321 145.722 159.633 146.801 166.388 149.534C173.144 152.268 179.149 156.577 183.901 162.103C188.652 167.629 192.014 174.211 193.705 181.3C193.73 182.012 193.654 182.724 193.481 183.415C193.072 185.048 189.936 186.473 188.123 183.823C187.666 183.154 185.706 181.3 185.767 184.464C185.828 187.629 188.842 187.964 185.918 189.863C182.995 191.761 182.46 191.3 181.108 191.778C179.756 192.255 178.45 195.514 178.768 197.262C179.087 199.009 183.26 203.795 180.165 203.579C179.438 203.521 173.979 199.785 173.08 197.384C172.133 194.857 171.1 192.382 170.365 190.475C169.63 188.568 167.694 188.09 166.057 189.205C164.419 190.32 166.51 191.431 165.334 193.811C164.158 196.192 163.329 198.303 161.614 196.343C157.159 191.222 150.671 193.734 149.662 188.046C149.115 184.959 146.461 185.253 144.24 183.501C142.018 181.749 140.769 180.814 140.393 182.072C140.058 183.174 147.372 188.985 147.89 190.475C148.662 192.684 145.693 194.628 143.517 195.146C141.34 195.665 140.405 193.921 138.278 191.704C136.151 189.487 135.22 187.899 135.068 189.638C134.852 192.153 137.086 195.853 139.254 197.237C141.1 198.409 143.174 198.944 142.57 200.843C141.965 202.741 142.57 201.659 140.483 203.701C138.396 205.743 138.008 206.425 138.155 209.267C138.302 212.109 137.559 212.288 137.11 214.661C136.661 217.033 135.632 214.979 134.734 218.458M183.799 200.296C185.338 200.173 187.641 202.305 186.739 203.121C185.837 203.938 183.534 203.632 182.382 202.713C181.231 201.794 183.109 200.336 183.799 200.283M181.859 198.875C181.365 198.691 180.932 198.221 180.561 197.098C180.189 195.975 181.133 195.338 182.055 195.792C182.978 196.245 184.207 197.67 184.207 198.417C184.207 199.164 182.362 199.075 181.859 198.875ZM161.7 198.801C160.793 199.618 158.482 199.307 157.327 198.393C156.171 197.478 158.062 196.016 158.748 195.963C160.287 195.828 162.594 197.98 161.7 198.793M142.998 207.842C142.369 208.871 140.638 216.555 139.487 215.657C138.335 214.759 139.964 206.743 140.303 206.135C142.112 202.823 146.02 202.991 143.002 207.842M149.176 237.65C144.828 237.642 140.502 237.015 136.33 235.788C136.004 235.529 135.773 235.169 135.674 234.765C135.574 234.361 135.611 233.935 135.779 233.554C137.2 229.879 141.414 228.43 144.742 228.115C152.153 227.401 161.892 232.95 163.444 232.06C164.995 231.17 168.135 227.099 172.737 227.274C175.873 227.401 175.849 227.927 176.902 228.324C168.936 234.397 159.19 237.675 149.172 237.65M181.431 224.383C180.937 224.253 180.457 224.075 179.997 223.852C177.502 222.578 177.801 224.608 176.572 224.159C175.342 223.709 177.964 220.855 174.273 223.26C170.581 225.665 171.594 222.885 169.997 218.813C168.401 214.742 171.855 210.108 174.767 209.067C178.74 207.633 181.206 207.343 183.068 206.886C188.564 205.522 189.728 202.264 190.724 204.248C190.912 204.62 191.092 204.975 191.255 205.306C191.7 206.237 191.94 207.254 191.957 208.287C189.638 214.341 186.059 219.834 181.455 224.399M194.011 201.337C192.786 200.998 187.662 193.897 191.725 189.23C192.403 188.462 190.369 186.204 190.908 186.159C193.129 185.988 194.309 187.384 194.889 189.356C194.93 190.23 194.967 191.112 194.963 192.006C194.958 195.141 194.633 198.268 193.995 201.337" fill="white"/>
</g>
<defs>
<clipPath id="clip0_214_44">
<rect width="294" height="294" fill="white"/>
</clipPath>
</defs>
</svg>
