<svg width="294" height="294" viewBox="0 0 294 294" fill="none" xmlns="http://www.w3.org/2000/svg">
<g clip-path="url(#clip0_214_35)">
<path d="M-0.44101 -0.440918H294.441V294.441H-0.44101V-0.440918Z" fill="#FCC30B"/>
<path d="M36.3907 33.3977H21.119V25.2066H46.8726V32.2176L35.0023 81.4341H24.5898L36.3907 33.3977ZM73.5 25.1657H82.5242V27.9261H77.3832V34.1082H81.4176V36.8441H77.3832V43.9817H82.5609V46.6645H73.5V25.1657ZM84.3127 25.1657H87.0444L92.2752 37.4157V25.1657H95.5132V46.6645H92.9121L87.6569 33.8183V46.6645H84.3127V25.1657ZM98.245 25.1657H107.269V27.9261H102.149V34.1082H106.167V36.8441H102.132V43.9817H107.306V46.6645H98.245V25.1657ZM109.074 25.1657H114.252C118.551 25.1657 120.993 26.5459 120.993 30.8824C120.993 33.459 120.356 35.2638 118.339 36.0846L121.336 46.6767H117.408L114.836 36.8277H112.978V46.6767H109.074V25.1657ZM114.223 34.3736C116.481 34.3736 117.302 33.3936 117.302 31.0825C117.302 28.9061 116.693 27.8444 114.444 27.8444H112.986V34.3777L114.223 34.3736ZM122.982 39.5758V32.3565C122.982 27.7382 124.391 24.9248 129.107 24.9248C133.513 24.9248 135.052 27.2074 135.052 31.1886V32.3034H131.308V31.0784C131.308 29.0081 131.095 27.7872 129.16 27.7872C127.09 27.7872 126.93 29.4614 126.93 31.4255V40.4251C126.93 42.6546 127.339 44.0634 129.266 44.0634C131.193 44.0634 131.626 42.5771 131.626 40.2414V38.2242H129.319V35.7742H135.158V46.6849H132.61L132.345 44.5861C131.761 45.9662 130.712 46.9748 128.707 46.9748C124.468 46.9585 122.982 44.1001 122.982 39.5758ZM137.739 25.1657H141.614V46.6645H137.739V25.1657ZM147.612 25.1657H151.806L156.106 46.6645H152.472L151.622 41.6991H147.878L147 46.6645H143.325L147.612 25.1657ZM151.198 39.2001L149.736 30.176L148.278 39.2001H151.198ZM163.644 25.1657H167.543V43.9817H172.774V46.6645H163.644V25.1657ZM174.391 25.1657H178.266V46.6645H174.391V25.1657ZM181.373 25.1657H185.432L188.487 40.0536L191.643 25.1657H195.592L196 46.6645H193.08L192.762 31.7195L189.712 46.6645H187.343L184.24 31.6664L183.946 46.6645H181.002L181.373 25.1657ZM198.65 25.1657H204.983C208.834 25.1657 210.479 27.3952 210.479 31.2703C210.479 35.4884 208.197 37.1095 204.718 37.1095H202.57V46.6645H198.666L198.65 25.1657ZM204.065 34.3491C206.216 34.3491 206.772 33.5325 206.772 31.2417C206.772 28.951 206.482 27.9261 204.065 27.9261H202.554V34.3491H204.065ZM214.203 25.1657H218.397L222.697 46.6645H219.063L218.213 41.6991H214.469L213.595 46.6645H209.92L214.203 25.1657ZM217.789 39.2001L216.327 30.176L214.869 39.2001H217.789ZM73.5 60.2824H82.5242V63.0427H77.3832V69.2249H81.4176V71.9607H77.3832V79.0984H82.5609V81.7811H73.5V60.2824ZM93.443 60.2824H97.6366L101.936 81.7811H98.2981L97.4487 76.8158H93.7084L92.8305 81.7811H89.1555L93.443 60.2824ZM97.0241 74.3168L95.55 65.2967L94.1045 74.3168H97.0241ZM102.998 74.9048V67.2363C102.998 62.8304 104.403 60.0415 109.123 60.0415C113.529 60.0415 114.938 62.4915 114.938 66.2277V68.0326H111.169V66.1746C111.169 64.3698 111.14 62.908 109.152 62.908C107.163 62.908 106.947 64.4474 106.947 66.4115V75.7296C106.947 78.0653 107.424 79.1801 109.152 79.1801C111.087 79.1801 111.169 77.6651 111.169 75.7541V73.8186H114.938V75.5418C114.938 79.3393 113.664 82.0751 109.123 82.0751C104.403 82.0751 102.998 79.0984 102.998 74.9048ZM117.143 60.2824H126.175V63.0427H121.046V69.2249H125.081V71.9607H121.046V79.0984H126.22V81.7811H117.143V60.2824ZM127.441 75.5173L130.814 74.8517C130.92 77.3997 131.528 79.0453 133.264 79.0453C134.509 79.0453 135.04 78.196 135.04 77.0281C135.04 75.1702 134.084 74.1371 132.68 72.9162L129.972 70.552C128.433 69.2249 127.478 67.7386 127.478 65.3498C127.478 61.9525 129.601 60.0415 133.023 60.0415C137.057 60.0415 138.2 62.7487 138.413 65.8806L135.04 66.4646C134.962 64.4474 134.668 62.9366 132.945 62.9366C131.777 62.9366 131.14 63.8104 131.14 64.9537C131.14 66.4115 131.749 67.2077 132.892 68.1918L135.571 70.552C137.322 72.0669 138.784 73.9493 138.784 76.7913C138.784 79.8946 136.608 82.0711 133.394 82.0711C129.442 82.0751 127.6 79.7885 127.441 75.5173ZM139.809 75.5173L143.182 74.8517C143.288 77.3997 143.897 79.0453 145.632 79.0453C146.882 79.0453 147.412 78.196 147.412 77.0281C147.412 75.1702 146.457 74.1371 145.052 72.9162L142.341 70.552C140.801 69.2249 139.846 67.7386 139.846 65.3498C139.846 61.9525 141.969 60.0415 145.395 60.0415C149.43 60.0415 150.573 62.7487 150.785 65.8806L147.408 66.4646C147.331 64.4474 147.037 62.9366 145.314 62.9366C144.146 62.9366 143.505 63.8104 143.505 64.9537C143.505 66.4115 144.117 67.2077 145.26 68.1918L147.939 70.552C149.691 72.0669 151.153 73.9493 151.153 76.7913C151.153 79.8946 148.976 82.0711 145.763 82.0711C141.826 82.0751 139.968 79.7885 139.809 75.5173ZM153.027 60.2824H156.902V81.7811H153.027V60.2824ZM155.477 53.4877H159.152L155.983 58.8001H153.889L155.477 53.4877ZM158.678 60.2824H162.129L164.987 75.4887L167.666 60.2824H171.198L166.869 81.7811H163.007L158.678 60.2824ZM172.852 60.2824H181.876V63.0427H176.755V69.2249H180.79V71.9607H176.755V79.0984H181.929V81.7811H172.852V60.2824ZM183.681 60.2824H187.584V79.0984H192.811V81.7811H183.681V60.2824ZM147.106 143.223C138.518 143.221 130.121 145.767 122.979 150.537C115.838 155.308 110.271 162.089 106.983 170.024C103.695 177.958 102.835 186.689 104.509 195.113C106.184 203.537 110.32 211.275 116.392 217.348C122.465 223.421 130.203 227.557 138.626 229.233C147.05 230.909 155.781 230.049 163.716 226.762C171.651 223.475 178.432 217.909 183.204 210.767C187.975 203.626 190.521 195.23 190.52 186.641C190.52 175.127 185.946 164.084 177.805 155.941C169.663 147.799 158.621 143.224 147.106 143.223ZM143.893 160.373C143.893 158.928 145.342 157.335 147.127 157.335C148.911 157.335 150.34 158.928 150.34 160.373V175.277C150.34 176.719 148.903 178.291 147.127 178.291C145.35 178.291 143.893 176.719 143.893 175.277V160.373ZM147.114 208.887C141.715 208.883 136.495 206.944 132.401 203.423C128.308 199.901 125.611 195.03 124.8 189.692C123.989 184.353 125.117 178.9 127.979 174.322C130.842 169.744 135.251 166.342 140.405 164.734V173.133C137.442 174.637 135.071 177.096 133.676 180.112C132.281 183.128 131.943 186.526 132.716 189.759C133.489 192.991 135.328 195.868 137.937 197.927C140.546 199.985 143.773 201.105 147.096 201.105C150.419 201.105 153.646 199.985 156.255 197.927C158.864 195.868 160.703 192.991 161.476 189.759C162.249 186.526 161.911 183.128 160.516 180.112C159.121 177.096 156.75 174.637 153.786 173.133V164.73C158.95 166.327 163.37 169.723 166.243 174.301C169.116 178.879 170.252 184.336 169.444 189.68C168.637 195.025 165.939 199.902 161.842 203.427C157.745 206.952 152.519 208.891 147.114 208.891M97.2691 186.261C97.2691 184.293 95.5255 182.701 93.933 182.701H74.921C73.3162 182.701 71.5563 184.293 71.5563 186.261C71.5563 188.23 73.3162 189.838 74.921 189.838H93.9167C95.5092 189.838 97.2527 188.234 97.2527 186.261M222.68 186.261C222.68 184.293 220.933 182.701 219.34 182.701H200.328C198.728 182.701 196.968 184.293 196.968 186.261C196.968 188.23 198.728 189.838 200.328 189.838H219.34C220.933 189.838 222.68 188.234 222.68 186.261Z" fill="white"/>
<path d="M147.127 261.828C149.091 261.828 150.687 260.084 150.687 258.492V239.48C150.687 237.879 149.091 236.115 147.127 236.115C145.162 236.115 143.545 237.879 143.545 239.48V258.475C143.545 260.068 145.154 261.811 147.127 261.811M212.701 223.795C213.677 222.089 212.958 219.835 211.574 219.047L195.073 209.602C193.685 208.806 191.361 209.316 190.385 211.027C189.409 212.738 190.136 215.004 191.529 215.8L208.029 225.241C209.41 226.033 211.704 225.506 212.701 223.795ZM109.593 251.852C111.299 252.828 113.549 252.105 114.341 250.725L123.786 234.224C124.603 232.832 124.072 230.513 122.361 229.537C120.65 228.561 118.38 229.288 117.588 230.676L108.143 247.177C107.355 248.557 107.878 250.852 109.593 251.852ZM184.791 251.766C186.494 250.786 187.008 248.479 186.216 247.099L176.739 230.619C175.922 229.226 173.68 228.499 171.974 229.479C170.267 230.459 169.748 232.787 170.553 234.179L180.026 250.66C180.822 252.04 183.076 252.75 184.791 251.766ZM81.6217 223.942C82.6017 225.645 84.8884 226.16 86.289 225.368L102.765 215.89C104.158 215.073 104.893 212.832 103.909 211.125C102.924 209.418 100.597 208.899 99.2127 209.7L82.7283 219.177C81.3481 219.969 80.6376 222.232 81.6217 223.942ZM147.127 136.42C149.091 136.42 150.687 134.677 150.687 133.084V114.072C150.687 112.467 149.091 110.708 147.127 110.708C145.162 110.708 143.545 112.467 143.545 114.072V133.084C143.545 134.677 145.154 136.42 147.127 136.42ZM103.855 161.5C104.835 159.793 104.117 157.543 102.733 156.751L86.2318 147.311C84.8394 146.494 82.5201 147.021 81.5401 148.727C80.5601 150.434 81.2951 152.709 82.6834 153.505L99.1841 162.95C100.568 163.742 102.859 163.215 103.855 161.5ZM171.884 143.011C173.595 143.987 175.841 143.264 176.633 141.884L186.077 125.383C186.874 123.991 186.363 121.671 184.656 120.691C182.95 119.711 180.675 120.442 179.879 121.835L170.438 138.335C169.646 139.72 170.169 142.031 171.884 143.011ZM122.275 143.052C123.978 142.072 124.493 139.765 123.7 138.384L114.223 121.9C113.406 120.512 111.165 119.781 109.458 120.765C107.751 121.749 107.232 124.072 108.033 125.461L117.51 141.941C118.327 143.321 120.56 144.036 122.275 143.052ZM190.336 161.423C191.316 163.129 193.623 163.644 195.004 162.852L211.484 153.374C212.872 152.558 213.607 150.312 212.627 148.605C211.647 146.898 209.32 146.384 207.927 147.184L191.443 156.661C190.063 157.454 189.352 159.716 190.336 161.423Z" fill="white"/>
</g>
<defs>
<clipPath id="clip0_214_35">
<rect width="294" height="294" fill="white"/>
</clipPath>
</defs>
</svg>
