<svg width="294" height="294" viewBox="0 0 294 294" fill="none" xmlns="http://www.w3.org/2000/svg">
<g clip-path="url(#clip0_214_30)">
<path d="M-0.440979 -0.440918H294.441V294.441H-0.440979V-0.440918Z" fill="#4C9F38"/>
<path d="M22.2991 65.3987V63.455H32.9892V65.3333C33.075 70.8132 34.0305 73.3816 37.5667 73.3816C41.1763 73.3816 41.9399 70.6049 41.9399 65.2598C41.9399 59.6371 40.621 56.4439 35.6924 56.3051C35.0705 56.2327 34.4438 56.2095 33.8182 56.2357V48.3916H35.4842C40.4822 48.3916 41.9399 45.8232 41.9399 40.0616C41.9399 35.5699 40.8987 32.9811 37.3584 32.9811C33.8182 32.9811 33.075 36.0354 32.9892 40.425V42.924H22.2991V39.8533C22.2991 29.9962 27.8524 24.4428 37.3625 24.4428C46.942 24.4428 52.4953 29.7185 52.4953 39.5062C52.4953 46.1008 49.441 50.6823 45.4148 51.793C49.4982 53.3202 52.4953 57.0687 52.4953 65.0516C52.4953 75.2599 48.412 82.4057 37.4319 82.4057C26.1864 82.4057 22.2991 75.6029 22.2991 65.3987ZM76.6278 40.4005L80.0007 39.7349C80.1068 42.2829 80.7152 43.9285 82.4507 43.9285C83.6757 43.9285 84.2269 43.0792 84.2269 41.9113C84.2269 40.0534 83.2714 39.0203 81.8667 37.7994L79.1595 35.4352C77.6201 34.1081 76.6646 32.6217 76.6646 30.233C76.6646 26.8357 78.7879 24.9247 82.2097 24.9247C86.2441 24.9247 87.3874 27.6319 87.5997 30.7638L84.2269 31.3477C84.1493 29.3306 83.8553 27.8197 82.1322 27.8197C80.9643 27.8197 80.3273 28.6936 80.3273 29.8369C80.3273 31.2947 80.9357 32.0909 82.0791 33.075L84.7577 35.4352C86.5095 36.9501 87.9713 38.8325 87.9713 41.6745C87.9713 44.7778 85.7949 46.9542 82.5813 46.9542C78.645 46.9583 76.7871 44.6717 76.6278 40.4005ZM93.2429 25.1656H97.4365L101.736 46.6643H98.1021L97.2527 41.699H93.5083L92.6345 46.6643H88.9595L93.2429 25.1656ZM96.8281 39.2L95.3662 30.1758L93.9167 39.2H96.8281ZM103.488 39.7104V25.1656H107.31V40.1596C107.31 42.2012 107.551 44.0347 109.539 44.0347C111.528 44.0347 111.798 42.2053 111.798 40.1596V25.1656H115.591V39.7104C115.591 44.2021 114.346 46.9542 109.539 46.9542C104.733 46.9542 103.488 44.2225 103.488 39.7104ZM110.07 18.375H113.745L110.577 23.6833H108.478L110.07 18.375ZM118.539 25.1656H123.607C128.837 25.1656 130.43 27.2603 130.43 31.8541V39.6818C130.43 44.4062 128.797 46.6643 123.766 46.6643H118.539V25.1656ZM123.66 43.9285C126.342 43.9285 126.449 42.4952 126.449 39.8166V31.5887C126.449 29.0121 126.183 27.9504 123.59 27.9504H122.422V43.9285H123.66ZM133.19 25.1656H142.214V27.9259H137.09V34.1081H141.124V36.8439H137.09V43.9816H142.267V46.6643H133.19V25.1656ZM150.732 25.1656H159.756V27.9259H154.636V34.1081H158.67V36.8439H154.636V43.9816H159.809V46.6643H150.732V25.1656ZM77.175 60.2822H82.4833C86.2522 60.2822 88.7757 61.5562 88.7757 65.8029C88.7757 68.4285 87.6855 69.8862 85.6683 70.2088C88.1918 70.6866 89.3842 72.4914 89.3842 75.5172C89.3842 79.6291 87.367 81.781 83.3857 81.781H77.175V60.2822ZM82.4302 69.0655C84.7659 69.0655 85.3784 68.0324 85.3784 65.856C85.3784 63.5734 84.2637 62.9977 81.8749 62.9977H81.0787V69.0492L82.4302 69.0655ZM82.5895 79.0207C84.9782 79.0207 85.6438 77.9059 85.6438 75.4886C85.6438 72.9406 84.7945 71.7727 82.4588 71.7727H81.0787V79.0207H82.5895ZM91.8097 60.2822H100.834V63.0426H95.7133V69.2247H99.7477V71.9606H95.7133V79.0982H100.887V81.781H91.8097V60.2822ZM103.357 60.2822H107.416L110.47 75.1701L113.627 60.2822H117.6L118.008 81.781H115.089L114.77 66.836L111.72 81.781H109.356L106.252 66.7829L105.958 81.781H103.014L103.357 60.2822ZM120.928 71.8667H127.322V74.3167H120.928V71.8667ZM130.324 60.2822H139.348V63.0426H134.223V69.2247H138.258V71.9606H134.223V79.0982H139.401V81.781H130.324V60.2822ZM141.018 75.5172L144.391 74.8516C144.497 77.3996 145.105 79.0452 146.841 79.0452C148.086 79.0452 148.617 78.1958 148.617 77.028C148.617 75.1701 147.661 74.137 146.257 72.9161L143.55 70.5518C142.01 69.2247 141.055 67.7384 141.055 65.3497C141.055 61.9523 143.178 60.0413 146.6 60.0413C150.634 60.0413 151.777 62.7486 151.99 65.8805L148.617 66.4644C148.539 64.4472 148.245 62.9364 146.522 62.9364C145.354 62.9364 144.717 63.8102 144.717 64.9536C144.717 66.4113 145.326 67.2076 146.469 68.1917L149.148 70.5518C150.9 72.0667 152.361 73.9492 152.361 76.7912C152.361 79.8945 150.185 82.0709 146.971 82.0709C143.035 82.075 141.177 79.7883 141.018 75.5172ZM156.678 63.1732H153.256V60.2822H163.95V63.1732H160.606V81.781H156.678V63.1732ZM168.462 60.2822H172.656L176.955 81.781H173.321L172.472 76.8157H168.727L167.854 81.781H164.179L168.462 60.2822ZM172.047 74.3167L170.585 65.2925L169.128 74.3167H172.047ZM178.973 60.2822H184.158C188.458 60.2822 190.9 61.6624 190.9 65.9989C190.9 68.5755 190.263 70.3803 188.246 71.2011L191.243 81.7932H187.315L184.742 71.9442H182.884V81.7932H178.973V60.2822ZM184.122 69.4902C186.38 69.4902 187.2 68.5102 187.2 66.199C187.2 64.0226 186.592 62.9609 184.342 62.9609H182.884V69.4942L184.122 69.4902ZM246.499 184.019C246.499 175.685 241.149 168.911 233.048 168.911C228.997 168.911 224.11 173.346 221.46 176.073C218.805 173.342 214.24 168.903 210.19 168.903C202.088 168.903 196.412 175.661 196.412 184.011C196.397 187.994 197.941 191.825 200.712 194.685L221.476 215.49L242.211 194.71C244.981 191.843 246.52 188.006 246.499 184.019Z" fill="white"/>
<path d="M158.086 249.455H157.878C157.111 249.407 156.382 249.102 155.81 248.588C155.238 248.074 154.856 247.383 154.726 246.625L144.178 185.191L128.217 214.816C127.876 215.447 127.345 215.954 126.699 216.265C126.053 216.577 125.325 216.677 124.619 216.551C123.914 216.425 123.265 216.08 122.767 215.565C122.268 215.05 121.945 214.39 121.843 213.681L115.044 166.273L102.63 194.146C102.365 194.752 101.929 195.267 101.376 195.63C100.823 195.992 100.176 196.186 99.5149 196.188H51.2826C50.8348 196.188 50.3914 196.099 49.9778 195.928C49.5641 195.757 49.1882 195.506 48.8716 195.189C48.555 194.872 48.3039 194.497 48.1325 194.083C47.9612 193.669 47.873 193.226 47.873 192.778C47.873 192.33 47.9612 191.887 48.1325 191.473C48.3039 191.06 48.555 190.684 48.8716 190.367C49.1882 190.051 49.5641 189.799 49.9778 189.628C50.3914 189.457 50.8348 189.369 51.2826 189.369H97.3017L113.635 152.704C113.937 152.029 114.449 151.47 115.096 151.112C115.742 150.754 116.488 150.615 117.22 150.718C117.952 150.82 118.631 151.157 119.155 151.679C119.679 152.201 120.019 152.879 120.123 153.611L127.118 202.492L142.876 173.28C143.213 172.656 143.736 172.152 144.372 171.838C145.009 171.525 145.728 171.419 146.428 171.533C147.128 171.648 147.775 171.978 148.279 172.478C148.783 172.978 149.118 173.622 149.238 174.321L159.005 231.215L194.604 112.961C194.801 112.303 195.193 111.72 195.728 111.288C196.263 110.857 196.916 110.597 197.602 110.543C198.287 110.489 198.972 110.644 199.568 110.986C200.164 111.329 200.643 111.844 200.941 112.463L219.683 151.275C219.878 151.679 219.991 152.116 220.016 152.564C220.041 153.011 219.978 153.459 219.83 153.881C219.682 154.304 219.452 154.694 219.154 155.028C218.856 155.362 218.494 155.634 218.091 155.828C217.687 156.022 217.249 156.135 216.802 156.161C216.355 156.186 215.907 156.123 215.485 155.975C215.062 155.827 214.672 155.597 214.338 155.299C214.004 155 213.732 154.639 213.538 154.236L198.601 123.317L161.353 247.042C161.139 247.741 160.706 248.352 160.118 248.787C159.529 249.221 158.817 249.455 158.086 249.455Z" fill="white"/>
</g>
<defs>
<clipPath id="clip0_214_30">
<rect width="294" height="294" fill="white"/>
</clipPath>
</defs>
</svg>
